<svg width="25.353" height="31.858" version="1.1" viewBox="0 0 6.708 8.429" xmlns="http://www.w3.org/2000/svg">
 <g transform="translate(-.87931 -.039178)" fill="none" stroke="#2f768b" stroke-width=".52917">
  <ellipse cx="4.2333" cy="1.7474" rx="3.0894" ry="1.4436" style="font-variation-settings:'wght' 400"/>
  <path d="m1.1439 6.7585v-5.0111"/>
  <path d="m7.3228 6.7585a3.0894 1.4436 0 0 1-1.5447 1.2502 3.0894 1.4436 0 0 1-3.0894 0 3.0894 1.4436 0 0 1-1.5447-1.2502" style="font-variation-settings:'wght' 400"/>
  <path d="m7.3228 4.2529a3.0894 1.4436 0 0 1-1.5447 1.2502 3.0894 1.4436 0 0 1-3.0894 0 3.0894 1.4436 0 0 1-1.5447-1.2502" style="font-variation-settings:'wght' 400"/>
  <path d="m7.3228 6.7585v-5.0111"/>
 </g>
</svg>
